<?xml version="1.0" standalone="no"?>
<!DOCTYPE svg PUBLIC "-//W3C//DTD SVG 20010904//EN"
 "http://www.w3.org/TR/2001/REC-SVG-20010904/DTD/svg10.dtd">
<svg version="1.0" xmlns="http://www.w3.org/2000/svg"
 width="512.000000pt" height="512.000000pt" viewBox="0 0 512.000000 512.000000"
 preserveAspectRatio="xMidYMid meet">

<g transform="translate(0.000000,512.000000) scale(0.100000,-0.100000)"
fill="#000000" stroke="none">
<path d="M2315 5109 c-799 -83 -1501 -518 -1927 -1196 -470 -747 -515 -1701
-119 -2493 131 -262 265 -445 485 -665 233 -233 416 -363 700 -501 244 -118
501 -195 791 -236 118 -17 511 -16 635 0 579 80 1097 337 1491 739 130 132
157 163 243 277 256 341 423 757 488 1211 17 118 17 512 0 630 -85 597 -332
1096 -743 1502 -401 396 -883 636 -1444 719 -123 18 -478 26 -600 13z m398
-1036 c56 -29 67 -63 67 -219 l0 -141 48 -31 c77 -51 266 -227 349 -325 179
-214 263 -389 263 -548 -1 -90 -14 -141 -65 -244 -57 -115 -124 -203 -254
-337 l-104 -108 -119 0 -118 0 0 -141 0 -140 183 3 c221 4 221 4 362 139 l100
97 385 111 c212 61 393 111 403 111 15 0 17 -11 17 -100 l0 -99 -82 -42 c-167
-84 -201 -118 -356 -360 -166 -260 -240 -343 -362 -406 l-55 -28 -805 0 -805
0 -85 28 c-243 81 -429 247 -530 471 -41 91 -70 218 -70 308 l0 78 389 0 c434
0 401 6 401 -73 1 -84 58 -169 142 -211 51 -26 56 -26 270 -26 l218 0 0 140 0
140 -190 0 c-158 0 -192 3 -196 15 -3 8 25 63 66 127 98 155 186 336 211 438
29 116 23 326 -14 475 -50 198 -117 375 -218 579 -32 65 -59 120 -59 122 0 11
53 0 204 -41 92 -25 173 -45 181 -45 12 0 15 18 15 103 0 121 16 157 83 187
45 21 80 19 130 -7z m-695 -635 c99 -251 136 -417 130 -573 -5 -112 -27 -176
-116 -335 l-47 -85 -358 -3 c-298 -2 -358 0 -363 12 -8 20 676 1086 697 1086
11 0 28 -30 57 -102z"/>
</g>
</svg>
